<svg xmlns="http://www.w3.org/2000/svg" width="1366" height="768" xmlns:xlink="http://www.w3.org/1999/xlink"><defs><pattern id="a" x="0" y="0" width="72" height="72" patternTransform="rotate(-34 -13523.568 -21904.383) scale(1.1645)" patternUnits="userSpaceOnUse"><g fill="none"><path d="M0 0h72v72H0z"/><path d="M71.75 68.399h72.5M71.75 54h72.5m-72.5-14.399h72.5M71.75 25.2h72.5m-72.5-14.4h72.5m-72.5 50.4h72.5m-72.5-14.4h72.5m-72.5-14.4h72.5M71.75 18h72.5M71.75 3.601h72.5M-.25 68.399h72.5M-.25 54h72.5M-.25 39.601h72.5M-.25 25.2h72.5M-.25 10.8h72.5M-.25 61.2h72.5M-.25 46.8h72.5M-.25 32.4h72.5M-.25 18h72.5M-.25 3.601h72.5m-144.5 64.798H.25M-72.25 54H.25m-72.5-14.399H.25M-72.25 25.2H.25m-72.5-14.4H.25m-72.5 50.4H.25m-72.5-14.4H.25m-72.5-14.4H.25M-72.25 18H.25m-72.5-14.399H.25" stroke="#da291c" stroke-width="2"/></g></pattern><pattern id="b" patternTransform="rotate(-34 -13348.845 -22583.634) scale(1.1645)" xlink:href="#a"/><pattern id="d" patternTransform="rotate(-34 -13212.07 -22604.135) scale(1.1645)" xlink:href="#a"/><clipPath id="c"><path d="M821.626 471.353V354.262s165.96-7.387 137.995-44.687h35.707l5.477 129.067-73.256 23.78-105.923 8.931z" fill="none"/></clipPath><clipPath id="e"><path d="M592.578 641.982V504.003s-195.565-8.704-162.612-52.659H387.89l-6.454 152.092 86.325 28.02 124.818 10.526z" fill="none"/></clipPath></defs><path d="M382.742 409.022L340.196 659m126.37-295.346L449 651.028M554.824 364.5l9.654 283.484m79.829-284.33l31.857 287.374m64.553-287.374l49.22 284.33m54.796-284.33l65.805 284.33m23.848-277.196l81.301 271.336M336.81 422.754l687.092-.545m-716.6 89.541h745.689m-737.248 75.071h761.03" fill="none" stroke="#c3d7f4" stroke-miterlimit="10" stroke-width="2"/><path fill="#fff" stroke="#da291c" stroke-linecap="round" stroke-linejoin="round" stroke-width="2" d="M244.464 167.272h131.561v109.253H244.464z"/><path fill="#c3d7f4" d="M380.393 117.491h15.625v14.874h-15.625zM221.936 296.938h46.634v14.287h-46.634zm105.2-59.708c0 5.63-24.417 10.192-54.537 10.192s-54.537-4.563-54.537-10.191v-28.252l109.074-.318v28.57z"/><ellipse cx="272.599" cy="207.987" rx="54.537" ry="10.191" fill="#96b8e2"/><path d="M327.136 203.002c0 5.628-24.417 10.19-54.537 10.19s-54.537-4.562-54.537-10.19V174.75l109.074-.318v28.57z" fill="#c3d7f4"/><ellipse cx="272.599" cy="173.758" rx="54.537" ry="10.191" fill="#96b8e2"/><path d="M327.136 168.817c0 5.628-24.417 10.191-54.537 10.191s-54.537-4.563-54.537-10.191v-28.252l109.074-.318v28.57z" fill="#c3d7f4"/><ellipse cx="272.599" cy="139.573" rx="54.537" ry="10.191" fill="#96b8e2"/><path fill="#fff" d="M231.123 159.175h5.639v5.639h-5.639z"/><path fill="#96b8e2" d="M231.123 192.332h5.639v5.639h-5.639z"/><path fill="#fff" d="M231.123 228.174h5.639v5.639h-5.639z"/><circle cx="376.026" cy="219.699" r="30.396" fill="#efceca"/><path d="M366.015 218.178h22.191m-11.096-11.096v22.192m-46.334 96.493h19.582v18.641h-19.582z" fill="#fff" stroke="#da291c" stroke-linecap="round" stroke-linejoin="round" stroke-width="2"/><path fill="#c3d7f4" d="M1083.588 127.465h64.35v19.734h-64.35zm-82.064 43.236h114.239v122.613h-114.239z"/><path fill="none" stroke="#da291c" stroke-miterlimit="10" stroke-width="2" d="M969.02 140.007h64.834v59.76H969.02z"/><path fill="#fff" d="M1019.861 240.419h75.949v33.646h-75.949z"/><path fill="#da291c" d="M1043.018 185.534h15.441v14.233h-15.441z"/><path d="M938.006 571.557c0 23.805-113.922 43.102-254.452 43.102s-254.452-19.297-254.452-43.102l.52-40.664 507.865-.52.52 41.184z" fill="#efceca"/><path d="M685.046 578.737c-140.53 0-254.452-19.297-254.452-43.101l.072-5.62h-1.044l-.52 40.665c0 23.804 113.922 43.101 254.452 43.101s254.453-19.297 254.453-43.1l-.376-29.818c-15.236 21.338-122.504 37.873-252.585 37.873z" fill="url(#a)"/><path d="M938.006 538.163c0 23.804-113.922 43.101-254.452 43.101s-254.452-19.297-254.452-43.101v-6.75h508.905v6.75z" fill="#fff"/><ellipse cx="683.554" cy="530.374" rx="254.452" ry="43.101" fill="#da291c" stroke="#da291c" stroke-miterlimit="10" stroke-width="2"/><path d="M932.688 504.71c0 23.498-112.455 42.547-251.176 42.547s-251.176-19.049-251.176-42.546l.515-90.731 501.324-.513.513 91.244z" fill="#efceca"/><path d="M932.688 421.156c0 23.498-112.455 42.546-251.176 42.546s-251.176-19.048-251.176-42.546v-6.664h502.352v6.664z" fill="#fff"/><ellipse cx="681.512" cy="413.467" rx="251.176" ry="42.546" fill="#da291c"/><path d="M932.688 381.686c0 23.497-112.455 42.546-251.176 42.546s-251.176-19.049-251.176-42.546l.515-90.731 501.324-.513.513 91.244z" fill="#efceca"/><path d="M932.688 298.131c0 23.498-112.455 42.547-251.176 42.547s-251.176-19.049-251.176-42.547v-6.663h502.352v6.663z" fill="#fff"/><ellipse cx="681.512" cy="290.442" rx="251.176" ry="42.546" fill="#da291c" stroke="#da291c" stroke-miterlimit="10" stroke-width="2"/><path d="M712.759 420.372c-73.432 0-125.977-1.234-164.348-8.854-41.79-8.298-73.834-42.021-80.451-84.11l-1.038-6.601-1.512.045c-9.538-3.479-14.98-3.479-22.136-8.734-4.93-3.62-12.472-8.003-12.472-8.003l.072-12.73-.514 90.651c0 23.477 112.358 42.51 250.958 42.51 65.548 0 125.216-4.26 169.917-11.23-39.691 4.457-87.289 7.055-138.476 7.055z" fill="url(#a)"/><path d="M913.157 440.67c.922 21.956 1.01 57.952-31.546 89.76 32.95-7.005 51.077-17.052 51.077-26.706l-.751-76.3-18.78 13.245z" fill="url(#b)"/><path d="M590.068 545.13v-91.612l-20.34-33.855s-87.083-7.109-121.945-22.275c0 0-19.493 7.452-18.109 16.916 0 0-.464 7.342.46 9.245l-.577 78.13s-1.952 10.632 13.87 16.761c0 0 11.437 5.494 24.785 8.738 8.052 3.457 29.192 7.658 37.29 9.194a71.86 71.86 0 006.227.9l78.339 7.858z"/><path d="M681.536 455.244c-33.259 0-65.008-1.095-94.06-3.083-92.12-6.306-157.116-21.599-157.116-39.463 0-5.49 6.114-9.681 17.293-14.5m140.85 85.482c-6.623-.348-13.13-.741-19.506-1.178-63.333-4.335-113.845-12.918-139.23-23.664m159.023 56.259c-8.662-.416-17.133-.909-25.386-1.474-59.122-4.047-107.072-11.796-133.837-21.55m79.568 43.394v-91.812m-44.039 82.613v-91.812" fill="none" stroke="#da291c" stroke-linecap="round" stroke-linejoin="round" stroke-width="2"/><path d="M904.176 259.025c11.179 4.818 17.292 9.01 17.292 14.5 0 1.101-.25 2.193-.735 3.274 5.655 2.81 14.754 8.409 13.793 14.979 0 0 .465 7.342-.46 9.245l.577 78.13s1.952 10.632-13.87 16.761c0 0-11.438 5.494-24.785 8.738-8.052 3.457-29.193 7.658-37.29 9.194-2.064.392-4.138.69-6.227.9l-78.34 6.295v-90.049l11.832-19.693a1111.478 1111.478 0 01-23.462 1.813v133.174l188.767-22.2 13.94-141.336-61.032-23.725z" fill="none"/><path d="M774.132 338.269v82.772l78.339-6.294a72.12 72.12 0 006.226-.901c8.098-1.536 29.239-5.737 37.29-9.194 13.348-3.244 24.786-8.738 24.786-8.738 15.822-6.129 13.87-16.762 13.87-16.762l-.577-78.129c.925-1.903.46-9.245.46-9.245.96-6.57-8.138-12.169-13.793-14.979-6.757 15.037-71.49 26.163-146.601 32.776v28.694z"/><path d="M775.154 361.794c6.623-.349 14.942-.966 21.319-1.403 63.332-4.335 113.844-12.918 139.23-23.664M775.153 393.3c8.662-.416 18.66-1.223 26.913-1.788 59.122-4.047 107.071-11.796 133.837-21.55m-120.712 48.719v-91.812m41.143 86.487v-91.812m44.039 82.613v-91.812m-128.438 17.83c.619-.041 5.442-.083 6.058-.125 92.12-6.306 157.116-21.599 157.116-39.463 0-5.49-6.114-9.681-17.292-14.5" fill="none" stroke="#da291c" stroke-linecap="round" stroke-linejoin="round" stroke-width="2"/><path fill="#da291c" d="M859.378 515.713l12.943-2.971V472.97l-12.943 2.97v39.773z"/><path d="M774.132 421.04l31.702 29.404 71.252-14.702-45.224-19.649-57.73 4.948z"/><g clip-path="url(#c)"><path d="M483.818 419.875c0 23.498 112.456 42.546 251.176 42.546 138.72 0 251.176-25.2 251.176-48.697l-.514-84.58-501.325-.512-.513 91.243z" fill="#efceca" stroke="#da291c" stroke-miterlimit="10" stroke-width="2"/><path d="M482.247 336.839c0 23.498 112.456 42.546 251.176 42.546 138.72 0 251.176-19.048 251.176-42.546v-6.664H482.247v6.664z" fill="#fff"/><ellipse cx="734.994" cy="328.632" rx="251.176" ry="42.546" fill="#da291c" stroke="#da291c" stroke-miterlimit="10"/></g><path fill="#da291c" d="M821.626 354.262h-16.792l1.056 100.905 15.736 4.655v-105.56z"/><circle cx="783.836" cy="502.641" r="24.378" stroke="#da291c" stroke-miterlimit="10" stroke-width="2"/><circle cx="796.453" cy="516.309" r="23.522" fill="#da291c"/><path fill="#da291c" d="M811.058 497.87l24.682 21.143-32.486 35.846-20.499-19.426 28.303-37.564z"/><circle cx="819.976" cy="537.378" r="23.522" fill="#efceca" stroke="#da291c" stroke-miterlimit="10"/><path d="M859.378 494.428l12.943-3.035V472.97l-12.943 2.97v18.488z"/><path d="M512.094 348.533v42.023s25.038 13.61 71.603 8.64v-44.289s-31.223.628-71.603-6.374z" stroke="#da291c" stroke-linecap="round" stroke-linejoin="round" stroke-width="2"/><path fill="#da291c" d="M501.868 361.177l-12.715 11.437 70.106 49.926 11.72-12.462V378.12l-69.11-16.943z"/><path d="M501.868 361.177l6.447 35.126s17.72 18.572 62.665 13.775V367.33s-30.137.606-69.112-6.152z" fill="#da291c"/><path d="M489.65 373.2v40.562s24.166 13.136 69.11 8.34v-42.75s-30.136.607-69.11-6.151z" fill="#efceca" stroke="#da291c" stroke-miterlimit="10"/><circle cx="465.096" cy="469.061" r="6.697" fill="#edf3fc"/><path d="M590.068 545.13l-40.32 22.894-22.181-1.927-114.008-31.91 26.094-17.462 150.415 28.405z"/><circle cx="509.135" cy="475.758" r="6.697" fill="#da291c"/><path d="M929.965 242.79c0 23.497-112.455 42.546-251.176 42.546s-251.175-19.049-251.175-42.547l.514-90.73 501.325-.513.512 91.243z" fill="#f4dfdf"/><path d="M929.965 158.21c0 23.497-112.455 42.546-251.176 42.546s-251.175-19.049-251.175-42.546v-6.664h502.351v6.664z" fill="#f7bcbc"/><ellipse cx="678.789" cy="149.239" rx="251.176" ry="40.239" fill="#da291c" stroke="#fff" stroke-miterlimit="10" stroke-width="6"/><path d="M929.965 166.652l-.242 65.81s3.128 20.641-13.103 23.947c0 0-26.847 15.548-79.613 18.933 0 0-1.316-15.27 11.27-20.166 21.5-8.362 51.307-28.901 52.027-65.383.097-4.907 3.266-5.357 7.894-6.988 8.003-2.82 19.538-7.145 21.767-16.153z" fill="url(#d)"/><ellipse cx="627.596" cy="140.707" rx="10.917" ry="3.636"/><ellipse cx="657.351" cy="140.707" rx="10.917" ry="3.636" fill="#edf3fc"/><ellipse cx="715.901" cy="140.707" rx="10.917" ry="3.636" fill="#efceca"/><ellipse cx="715.901" cy="153.489" rx="10.917" ry="3.636" fill="#edf3fc"/><ellipse cx="686.96" cy="140.707" rx="10.917" ry="3.636"/><ellipse cx="627.596" cy="153.489" rx="10.917" ry="3.636" fill="#efceca"/><ellipse cx="686.96" cy="153.489" rx="10.917" ry="3.636"/><ellipse cx="657.351" cy="153.489" rx="10.917" ry="3.636" fill="#efceca"/><path fill="#da291c" d="M482.258 254.787l-12.944-2.972v-57.12l12.944 2.971v57.12z"/><path d="M469.314 251.815v-19.073l12.944 3.447v18.598l-12.944-2.972z"/><path d="M602.785 261.25c25.638 1.844 53.84 2.865 83.45 2.865 26.017 0 50.945-.79 74.004-2.231v-44.609c-23.06 1.443-47.985 2.233-74.004 2.233-29.613 0-57.811-1.023-83.45-2.868v44.61z" stroke="#da291c" stroke-linecap="round" stroke-linejoin="round" stroke-width="2"/><path d="M602.785 236.894c25.638 1.845 53.84 2.866 83.45 2.866 26.017 0 50.945-.789 74.004-2.231M640.68 219.175v42.608m38.109-41.139v42.736m38.11-42.736v43.1" fill="none" stroke="#da291c" stroke-linecap="round" stroke-linejoin="round" stroke-width="2"/><path d="M603.51 253.777s52.093 8.333 156.729.64v7.467s-125.274 5.568-157.454-.635l.726-7.472z" fill="#da291c"/><circle cx="639.737" cy="239.439" r="6.697" fill="#da291c"/><circle cx="716.899" cy="239.76" r="6.697" fill="#da291c"/><circle cx="678.789" cy="240.479" r="6.697" fill="#edf3fc"/><path fill="#da291c" d="M961.583 309.575l-27.516-8.552v41.671l31.141-12.519 3.688-12.31-7.313-8.29z"/><path d="M589.386 543.135c-8.662-.416-17.132-.908-25.386-1.473-59.122-4.048-107.071-11.796-133.837-21.55m120.116-71.132v91.812" fill="none" stroke="#da291c" stroke-linecap="round" stroke-linejoin="round" stroke-width="2"/><circle cx="550.279" cy="480.362" r="6.697" fill="#edf3fc"/><circle cx="550.279" cy="512.885" r="6.697" fill="#da291c"/><path fill="#da291c" d="M603.61 387.943v-19.072h17.885v18.597l-17.886.475z"/><path d="M603.61 377.76h17.885v10.183h-17.886v-10.182"/><ellipse cx="679.337" cy="148.999" rx="227.434" ry="27.152" fill="none" opacity=".75" stroke="#edf3fc" stroke-miterlimit="10"/><g clip-path="url(#e)"><path d="M990.647 581.321c0 27.69-132.516 50.136-295.983 50.136s-295.983-29.695-295.983-57.384l.606-99.668 590.756-.604.604 107.52z" fill="#efceca" stroke="#da291c" stroke-miterlimit="10" stroke-width="2"/><path d="M992.298 482.443c0 27.69-132.516 50.136-295.983 50.136s-295.982-22.446-295.982-50.135v-7.853h591.965v7.852z" fill="#fff"/><ellipse cx="694.664" cy="473.801" rx="295.983" ry="50.136" fill="#da291c" stroke="#da291c" stroke-miterlimit="10"/></g><path fill="#da291c" d="M592.578 504.003l11.042 11.459-1.725 102.3-9.317 10.633V504.003zm-162.722-31.537c.156-.469.11-21.122.11-21.122l-9.485 6.59 9.375 14.532z"/></svg>